<?xml version="1.0" encoding="UTF-8"?>
<svg version="1.1" xmlns="http://www.w3.org/2000/svg" width="99" height="84">
<path d="M0 0 C1.31221527 -0.02859604 1.31221527 -0.02859604 2.65093994 -0.05776978 C4.05880768 -0.05503555 4.05880768 -0.05503555 5.49511719 -0.05224609 C6.95640045 -0.06510147 6.95640045 -0.06510147 8.44720459 -0.07821655 C10.50822851 -0.08969623 12.56933347 -0.09070863 14.63037109 -0.08203125 C17.76770391 -0.07573236 20.90122267 -0.12254643 24.03808594 -0.17333984 C26.04459162 -0.17788852 28.05110739 -0.17929157 30.05761719 -0.17724609 C31.45333954 -0.20487534 31.45333954 -0.20487534 32.8772583 -0.23306274 C39.65413077 -0.13792905 43.74174758 1.73957371 48.54199219 6.54931641 C51.90151436 10.79788977 53.35221061 15.14054137 53.54199219 20.54931641 C52.65827761 27.50856868 49.93374504 32.01273518 44.54199219 36.54931641 C41.86437936 37.94653497 39.47279326 38.7266354 36.54199219 39.54931641 C37.61513672 40.61472656 37.61513672 40.61472656 38.70996094 41.70166016 C41.46891789 44.46450982 44.18184976 47.26495728 46.85449219 50.11181641 C47.7375 51.04123047 48.62050781 51.97064453 49.53027344 52.92822266 C51.54199219 55.54931641 51.54199219 55.54931641 51.54199219 59.54931641 C47.5217156 59.72459957 43.50242939 59.83049999 39.47949219 59.92431641 C38.34576172 59.97458984 37.21203125 60.02486328 36.04394531 60.07666016 C26.56783643 60.24242299 26.56783643 60.24242299 22.44824219 56.76806641 C21.44735224 55.72506782 20.47382988 54.65444321 19.54199219 53.54931641 C18.88328125 52.85064453 18.22457031 52.15197266 17.54589844 51.43212891 C17.07023437 50.85205078 16.59457031 50.27197266 16.10449219 49.67431641 C15.61078125 49.07876953 15.11707031 48.48322266 14.60839844 47.86962891 C14.25648437 47.43392578 13.90457031 46.99822266 13.54199219 46.54931641 C13.45111328 47.70560547 13.45111328 47.70560547 13.35839844 48.88525391 C13.27460937 49.88814453 13.19082031 50.89103516 13.10449219 51.92431641 C13.02328125 52.92205078 12.94207031 53.91978516 12.85839844 54.94775391 C12.54199219 57.54931641 12.54199219 57.54931641 11.54199219 59.54931641 C8.5834181 59.60310866 5.62581497 59.64288733 2.66699219 59.67431641 C1.40435547 59.69945313 1.40435547 59.69945313 0.11621094 59.72509766 C-0.68945312 59.73154297 -1.49511719 59.73798828 -2.32519531 59.74462891 C-3.06882324 59.75510254 -3.81245117 59.76557617 -4.57861328 59.77636719 C-6.45800781 59.54931641 -6.45800781 59.54931641 -8.45800781 57.54931641 C-8.72543335 55.32363892 -8.72543335 55.32363892 -8.74853516 52.52050781 C-8.76129486 51.47246979 -8.77405457 50.42443176 -8.78720093 49.34463501 C-8.78942657 48.2081955 -8.79165222 47.07175598 -8.79394531 45.90087891 C-8.80060211 44.73680511 -8.80725891 43.57273132 -8.81411743 42.37338257 C-8.82425823 39.90697819 -8.82893401 37.4405463 -8.82861328 34.97412109 C-8.83298199 31.19664313 -8.86927643 27.42033712 -8.90722656 23.64306641 C-8.91309521 21.24984125 -8.91706428 18.85661052 -8.91894531 16.46337891 C-8.93331635 15.33098785 -8.94768738 14.1985968 -8.9624939 13.03189087 C-8.95634064 11.97754852 -8.95018738 10.92320618 -8.94384766 9.83691406 C-8.94669769 8.91028961 -8.94954773 7.98366516 -8.95248413 7.02896118 C-7.96553283 2.07970769 -4.85815571 0.05841124 0 0 Z M13.54199219 21.54931641 C13.87199219 23.19931641 14.20199219 24.84931641 14.54199219 26.54931641 C14.27327768 28.89097139 13.95160815 31.2281593 13.54199219 33.54931641 C18.06815211 29.87099624 21.93624218 26.13845278 25.54199219 21.54931641 C21.58199219 21.54931641 17.62199219 21.54931641 13.54199219 21.54931641 Z " fill="#F97045" transform="translate(34.4580078125,11.45068359375)"/>
<path d="M0 0 C1.31221527 -0.02859604 1.31221527 -0.02859604 2.65093994 -0.05776978 C4.05880768 -0.05503555 4.05880768 -0.05503555 5.49511719 -0.05224609 C6.95640045 -0.06510147 6.95640045 -0.06510147 8.44720459 -0.07821655 C10.50822851 -0.08969623 12.56933347 -0.09070863 14.63037109 -0.08203125 C17.76770391 -0.07573236 20.90122267 -0.12254643 24.03808594 -0.17333984 C26.04459162 -0.17788852 28.05110739 -0.17929157 30.05761719 -0.17724609 C31.45333954 -0.20487534 31.45333954 -0.20487534 32.8772583 -0.23306274 C39.65413077 -0.13792905 43.74174758 1.73957371 48.54199219 6.54931641 C51.90151436 10.79788977 53.35221061 15.14054137 53.54199219 20.54931641 C52.65827761 27.50856868 49.93374504 32.01273518 44.54199219 36.54931641 C41.86437936 37.94653497 39.47279326 38.7266354 36.54199219 39.54931641 C37.61513672 40.61472656 37.61513672 40.61472656 38.70996094 41.70166016 C41.46891789 44.46450982 44.18184976 47.26495728 46.85449219 50.11181641 C47.7375 51.04123047 48.62050781 51.97064453 49.53027344 52.92822266 C51.54199219 55.54931641 51.54199219 55.54931641 51.54199219 59.54931641 C47.5217156 59.72459957 43.50242939 59.83049999 39.47949219 59.92431641 C38.34576172 59.97458984 37.21203125 60.02486328 36.04394531 60.07666016 C26.56783643 60.24242299 26.56783643 60.24242299 22.44824219 56.76806641 C21.44735224 55.72506782 20.47382988 54.65444321 19.54199219 53.54931641 C18.88328125 52.85064453 18.22457031 52.15197266 17.54589844 51.43212891 C17.07023437 50.85205078 16.59457031 50.27197266 16.10449219 49.67431641 C15.61078125 49.07876953 15.11707031 48.48322266 14.60839844 47.86962891 C14.25648437 47.43392578 13.90457031 46.99822266 13.54199219 46.54931641 C13.45111328 47.70560547 13.45111328 47.70560547 13.35839844 48.88525391 C13.27460937 49.88814453 13.19082031 50.89103516 13.10449219 51.92431641 C13.02328125 52.92205078 12.94207031 53.91978516 12.85839844 54.94775391 C12.54199219 57.54931641 12.54199219 57.54931641 11.54199219 59.54931641 C8.5834181 59.60310866 5.62581497 59.64288733 2.66699219 59.67431641 C1.40435547 59.69945313 1.40435547 59.69945313 0.11621094 59.72509766 C-0.68945312 59.73154297 -1.49511719 59.73798828 -2.32519531 59.74462891 C-3.06882324 59.75510254 -3.81245117 59.76557617 -4.57861328 59.77636719 C-6.45800781 59.54931641 -6.45800781 59.54931641 -8.45800781 57.54931641 C-8.72543335 55.32363892 -8.72543335 55.32363892 -8.74853516 52.52050781 C-8.76129486 51.47246979 -8.77405457 50.42443176 -8.78720093 49.34463501 C-8.78942657 48.2081955 -8.79165222 47.07175598 -8.79394531 45.90087891 C-8.80060211 44.73680511 -8.80725891 43.57273132 -8.81411743 42.37338257 C-8.82425823 39.90697819 -8.82893401 37.4405463 -8.82861328 34.97412109 C-8.83298199 31.19664313 -8.86927643 27.42033712 -8.90722656 23.64306641 C-8.91309521 21.24984125 -8.91706428 18.85661052 -8.91894531 16.46337891 C-8.93331635 15.33098785 -8.94768738 14.1985968 -8.9624939 13.03189087 C-8.95634064 11.97754852 -8.95018738 10.92320618 -8.94384766 9.83691406 C-8.94669769 8.91028961 -8.94954773 7.98366516 -8.95248413 7.02896118 C-7.96553283 2.07970769 -4.85815571 0.05841124 0 0 Z M-4.45800781 1.54931641 C-4.05012527 2.02131973 -3.64224274 2.49332306 -3.22200012 2.97962952 C-2.68475815 3.60340988 -2.14751617 4.22719025 -1.59399414 4.86987305 C-1.0623616 5.48625137 -0.53072906 6.1026297 0.01701355 6.73768616 C1.29823396 8.25973872 2.51614034 9.83477222 3.71777344 11.42041016 C7.83890997 16.4458311 7.83890997 16.4458311 13.65771484 18.9921875 C18.65629564 19.41164144 23.56307384 19.06915707 28.54199219 18.54931641 C26.60599757 22.07149976 24.71704093 24.5162633 21.60449219 27.04931641 C15.60615395 32.092268 15.60615395 32.092268 12.72949219 39.23681641 C13.00010438 45.43736527 18.36933237 49.48719063 22.54199219 53.54931641 C23.13431641 54.24863281 23.72664063 54.94794922 24.33691406 55.66845703 C27.13822904 58.0578869 28.5447017 58.01734386 32.18261719 57.93994141 C33.25253906 57.92705078 34.32246094 57.91416016 35.42480469 57.90087891 C37.0915625 57.85060547 37.0915625 57.85060547 38.79199219 57.79931641 C39.91863281 57.78126953 41.04527344 57.76322266 42.20605469 57.74462891 C44.98556115 57.69751863 47.76334558 57.63175001 50.54199219 57.54931641 C46.47361046 52.65816801 42.19761141 48.07580887 37.66699219 43.61181641 C37.07402344 43.02335937 36.48105469 42.43490234 35.87011719 41.82861328 C34.42972753 40.39983967 32.98619548 38.97423509 31.54199219 37.54931641 C32.25484375 37.42556641 32.96769531 37.30181641 33.70214844 37.17431641 C41.29269435 35.53974394 45.19574817 32.98667783 49.54199219 26.54931641 C51.66498437 22.30333205 51.15203893 17.14768758 50.54199219 12.54931641 C48.12757487 7.43690928 44.6511559 3.94692201 39.54199219 1.54931641 C36.16768822 1.13799483 32.82357563 1.2002262 29.42871094 1.25634766 C27.97438408 1.26271492 27.97438408 1.26271492 26.49067688 1.26921082 C23.40332919 1.28596241 20.31664157 1.32360852 17.22949219 1.36181641 C15.13249643 1.37686778 13.0354904 1.39055539 10.93847656 1.40283203 C5.80606196 1.43585449 0.67413888 1.48761293 -4.45800781 1.54931641 Z M13.54199219 21.54931641 C13.87199219 23.19931641 14.20199219 24.84931641 14.54199219 26.54931641 C14.27327768 28.89097139 13.95160815 31.2281593 13.54199219 33.54931641 C18.06815211 29.87099624 21.93624218 26.13845278 25.54199219 21.54931641 C21.58199219 21.54931641 17.62199219 21.54931641 13.54199219 21.54931641 Z " fill="#FB7747" transform="translate(34.4580078125,11.45068359375)"/>
<path d="M0 0 C1.31232857 -0.02882263 1.31232857 -0.02882263 2.65116882 -0.05822754 C3.5949086 -0.06672729 4.53864838 -0.07522705 5.51098633 -0.08398438 C6.97439201 -0.10108459 6.97439201 -0.10108459 8.46736145 -0.11853027 C10.53434921 -0.13742958 12.60139723 -0.150498 14.66845703 -0.15820312 C17.81432036 -0.17755782 20.95753678 -0.2395679 24.1027832 -0.30273438 C26.11383544 -0.31580116 28.12490633 -0.32629947 30.13598633 -0.33398438 C31.06960495 -0.35867798 32.00322357 -0.38337158 32.96513367 -0.40881348 C39.76742693 -0.36297183 43.84253516 1.48872441 48.65551758 6.32226562 C52.0146073 10.57141636 53.46572243 14.91310378 53.65551758 20.32226562 C52.771803 27.2815179 50.04727043 31.7856844 44.65551758 36.32226562 C41.97790475 37.71948419 39.58631866 38.49958462 36.65551758 39.32226562 C37.72866211 40.38767578 37.72866211 40.38767578 38.82348633 41.47460938 C41.58244328 44.23745904 44.29537515 47.0379065 46.96801758 49.88476562 C47.85102539 50.81417969 48.7340332 51.74359375 49.64379883 52.70117188 C51.65551758 55.32226562 51.65551758 55.32226562 51.65551758 59.32226562 C47.63524099 59.49754879 43.61595478 59.60344921 39.59301758 59.69726562 C38.45928711 59.74753906 37.32555664 59.7978125 36.1574707 59.84960938 C26.68136182 60.01537221 26.68136182 60.01537221 22.56176758 56.54101562 C21.56087763 55.49801704 20.58735527 54.42739243 19.65551758 53.32226562 C18.99680664 52.62359375 18.3380957 51.92492188 17.65942383 51.20507812 C17.18375977 50.625 16.7080957 50.04492188 16.21801758 49.44726562 C15.72430664 48.85171875 15.2305957 48.25617187 14.72192383 47.64257812 C14.37000977 47.206875 14.0180957 46.77117188 13.65551758 46.32226562 C13.56463867 47.47855469 13.56463867 47.47855469 13.47192383 48.65820312 C13.38813477 49.66109375 13.3043457 50.66398437 13.21801758 51.69726562 C13.13680664 52.695 13.0555957 53.69273438 12.97192383 54.72070312 C12.65551758 57.32226562 12.65551758 57.32226562 11.65551758 59.32226562 C8.69694349 59.37605788 5.73934036 59.41583655 2.78051758 59.44726562 C1.51788086 59.47240234 1.51788086 59.47240234 0.22973633 59.49804688 C-0.57592773 59.50449219 -1.3815918 59.5109375 -2.21166992 59.51757812 C-2.95529785 59.52805176 -3.69892578 59.53852539 -4.46508789 59.54931641 C-6.34448242 59.32226562 -6.34448242 59.32226562 -8.34448242 57.32226562 C-8.46948242 53.69726562 -8.46948242 53.69726562 -8.34448242 50.32226562 C-8.01448242 50.32226562 -7.68448242 50.32226562 -7.34448242 50.32226562 C-7.34448242 52.30226562 -7.34448242 54.28226563 -7.34448242 56.32226562 C-1.40448242 56.65226562 4.53551758 56.98226562 10.65551758 57.32226562 C12.82033333 34.4980017 12.82033333 34.4980017 6.31958008 13.52929688 C3.31285772 10.30547735 -0.00169075 7.63212619 -3.75634766 5.32324219 C-5.34448242 4.32226562 -5.34448242 4.32226562 -7.34448242 2.32226562 C-4.25106961 0.25999042 -3.51530286 0.06245538 0 0 Z M-4.34448242 1.32226562 C-3.93659988 1.79426895 -3.52871735 2.26627228 -3.10847473 2.75257874 C-2.57123276 3.3763591 -2.03399078 4.00013947 -1.48046875 4.64282227 C-0.94883621 5.25920059 -0.41720367 5.87557892 0.13053894 6.51063538 C1.41175935 8.03268794 2.62966573 9.60772144 3.83129883 11.19335938 C7.95243536 16.21878032 7.95243536 16.21878032 13.77124023 18.76513672 C18.76982103 19.18459066 23.67659923 18.84210629 28.65551758 18.32226562 C26.71952296 21.84444898 24.83056633 24.28921252 21.71801758 26.82226562 C15.71967934 31.86521722 15.71967934 31.86521722 12.84301758 39.00976562 C13.11362977 45.21031449 18.48285776 49.26013984 22.65551758 53.32226562 C23.2478418 54.02158203 23.84016602 54.72089844 24.45043945 55.44140625 C27.25175443 57.83083612 28.65822709 57.79029308 32.29614258 57.71289062 C33.36606445 57.7 34.43598633 57.68710938 35.53833008 57.67382812 C37.20508789 57.62355469 37.20508789 57.62355469 38.90551758 57.57226562 C40.0321582 57.55421875 41.15879883 57.53617188 42.31958008 57.51757812 C45.09908654 57.47046785 47.87687097 57.40469923 50.65551758 57.32226562 C46.58713585 52.43111723 42.3111368 47.84875809 37.78051758 43.38476562 C37.18754883 42.79630859 36.59458008 42.20785156 35.98364258 41.6015625 C34.54325292 40.17278888 33.09972088 38.74718431 31.65551758 37.32226562 C32.36836914 37.19851562 33.0812207 37.07476562 33.81567383 36.94726562 C41.40621974 35.31269315 45.30927356 32.75962705 49.65551758 26.32226562 C51.77850976 22.07628127 51.26556432 16.9206368 50.65551758 12.32226562 C48.24110027 7.2098585 44.76468129 3.71987123 39.65551758 1.32226562 C36.28121361 0.91094405 32.93710102 0.97317541 29.54223633 1.02929688 C28.08790947 1.03566414 28.08790947 1.03566414 26.60420227 1.04216003 C23.51685458 1.05891162 20.43016696 1.09655774 17.34301758 1.13476562 C15.24602182 1.149817 13.14901579 1.16350461 11.05200195 1.17578125 C5.91958735 1.2088037 0.78766427 1.26056215 -4.34448242 1.32226562 Z M13.65551758 21.32226562 C13.98551758 22.97226562 14.31551758 24.62226562 14.65551758 26.32226562 C14.38680307 28.66392061 14.06513354 31.00110852 13.65551758 33.32226562 C18.1816775 29.64394545 22.04976757 25.911402 25.65551758 21.32226562 C21.69551758 21.32226562 17.73551758 21.32226562 13.65551758 21.32226562 Z " fill="#4C2428" transform="translate(34.344482421875,11.677734375)"/>
<path d="M0 0 C0.33 0 0.66 0 1 0 C1.5690616 7.99847695 0.56209396 11.89109338 -4.78125 18.0546875 C-7.39586939 20.34708267 -9.38777633 20.94947055 -12.75 21.75 C-13.73484375 21.99234375 -14.7196875 22.2346875 -15.734375 22.484375 C-16.48203125 22.65453125 -17.2296875 22.8246875 -18 23 C-17.42443359 23.57032959 -16.84886719 24.14065918 -16.25585938 24.72827148 C-13.66800128 27.29543719 -11.08395683 29.86640782 -8.5 32.4375 C-7.59378906 33.33533203 -6.68757813 34.23316406 -5.75390625 35.15820312 C-4.89667969 36.01220703 -4.03945312 36.86621094 -3.15625 37.74609375 C-2.36025391 38.53685303 -1.56425781 39.3276123 -0.74414062 40.14233398 C1 42 1 42 1 43 C-2.89543877 43.14553599 -6.79017651 43.23415059 -10.6875 43.3125 C-12.34168945 43.3753418 -12.34168945 43.3753418 -14.02929688 43.43945312 C-22.06855724 43.5608921 -22.06855724 43.5608921 -24.88525391 41.86474609 C-26.26953125 40.48046875 -26.26953125 40.48046875 -28 38 C-27.01 35.03 -27.01 35.03 -26 32 C-25.34 32 -24.68 32 -24 32 C-23.690625 31.071875 -23.38125 30.14375 -23.0625 29.1875 C-22.375 27.125 -21.6875 25.0625 -21 23 C-21.33 22.030625 -21.66 21.06125 -22 20.0625 C-22.99521949 17.01464031 -23.11976852 15.91139816 -22 13 C-22 13.99 -22 14.98 -22 16 C-19.69 16.66 -17.38 17.32 -15 18 C-14.67 17.01 -14.34 16.02 -14 15 C-13.278125 15.2475 -12.55625 15.495 -11.8125 15.75 C-8.84615601 16.3075786 -8.84615601 16.3075786 -6.25 14.1875 C-3.96669175 12.20801418 -3.96669175 12.20801418 -3 10 C-2.34 10 -1.68 10 -1 10 C-0.67 6.7 -0.34 3.4 0 0 Z " fill="#FA9850" transform="translate(84,26)"/>
<path d="M0 0 C1 5 1 5 2 10 C2.21269531 10.88042969 2.42539062 11.76085938 2.64453125 12.66796875 C3 15 3 15 1.75 17.625 C0.26793391 19.63637541 -1.24430952 21.24430952 -3 23 C-4.17574711 25.09989652 -4.17574711 25.09989652 -5 27 C-12.76623377 20.75324675 -12.76623377 20.75324675 -13.5 15.25 C-13.38560708 10.06418766 -10.56373872 7.45866534 -7 4 C-6.278125 3.195625 -5.55625 2.39125 -4.8125 1.5625 C-3 0 -3 0 0 0 Z " fill="#FC6840" transform="translate(61,36)"/>
<path d="M0 0 C4.95 0 9.9 0 15 0 C15 0.33 15 0.66 15 1 C11.04 1 7.08 1 3 1 C3.66 2.65 4.32 4.3 5 6 C4.55151712 7.6249682 4.0908275 9.24817517 3.55126953 10.84521484 C2.35120544 15.53598797 2.55569258 20.4954316 2.4375 25.3125 C2.377738 27.47537582 2.31413458 29.63815004 2.24609375 31.80078125 C2.22216553 32.75122314 2.1982373 33.70166504 2.17358398 34.6809082 C2 37 2 37 1 39 C-1.95857409 39.05379226 -4.91617721 39.09357093 -7.875 39.125 C-9.13763672 39.15013672 -9.13763672 39.15013672 -10.42578125 39.17578125 C-11.23144531 39.18222656 -12.03710938 39.18867187 -12.8671875 39.1953125 C-13.61081543 39.20578613 -14.35444336 39.21625977 -15.12060547 39.22705078 C-17 39 -17 39 -19 37 C-19.125 33.375 -19.125 33.375 -19 30 C-18.67 30 -18.34 30 -18 30 C-18 31.98 -18 33.96 -18 36 C-12.06 36.33 -6.12 36.66 0 37 C0 24.79 0 12.58 0 0 Z " fill="#322131" transform="translate(45,32)"/>
<path d="M0 0 C0.33 0 0.66 0 1 0 C1.73408663 4.66679971 2.15826238 9.20840224 2.28125 13.9296875 C2.31863281 15.22003906 2.35601563 16.51039062 2.39453125 17.83984375 C2.4301247 19.18488433 2.46527822 20.52993663 2.5 21.875 C2.70994627 29.96479886 2.94115614 37.97043404 4 46 C4.639375 46.103125 5.27875 46.20625 5.9375 46.3125 C6.618125 46.539375 7.29875 46.76625 8 47 C8.33 47.99 8.66 48.98 9 50 C11.64 50.33 14.28 50.66 17 51 C16.67 49.02 16.34 47.04 16 45 C16.33 45 16.66 45 17 45 C17.33 43.02 17.66 41.04 18 39 C18.33 39 18.66 39 19 39 C19 43.62 19 48.24 19 53 C12.73669186 53.08699039 7.29996943 52.78749618 1 52 C0.67 34.84 0.34 17.68 0 0 Z " fill="#BC4A41" transform="translate(26,16)"/>
<path d="M0 0 C6.47087858 5.34550839 6.47087858 5.34550839 9.09375 8.58984375 C12.76221071 12.96812648 15.63160637 16.06669104 21.421875 16.86328125 C25.6266369 17.19362415 29.78781147 17.16614201 34 17 C33.1875 19.4375 33.1875 19.4375 32 22 C31.01 22.33 30.02 22.66 29 23 C28.71125 23.5775 28.4225 24.155 28.125 24.75 C26.61498046 27.77003908 24.43423067 29.68748086 22 32 C19.55785778 33.99369369 19.55785778 33.99369369 19.8125 37.9375 C19.83809684 40.67636155 20.11335844 42.34007532 21 45 C20.34 45 19.68 45 19 45 C17.02000491 41.04000983 17.44377185 36.30608084 18 32 C20.1875 29.125 20.1875 29.125 23 27 C23.86625 26.0925 24.7325 25.185 25.625 24.25 C28 22 28 22 31 21 C31 20.34 31 19.68 31 19 C30.1028125 19.185625 29.205625 19.37125 28.28125 19.5625 C22.8411499 20.19193307 18.44473108 20.67229162 13.75146484 17.46191406 C9.28049641 13.56114762 5.31083365 9.20067489 1.45776367 4.69580078 C-0.0437539 2.90606757 -0.0437539 2.90606757 -2 1 C-1.34 0.67 -0.68 0.34 0 0 Z " fill="#572426" transform="translate(29,13)"/>
<path d="M0 0 C3.20815804 1.60407902 4.66358318 2.41713934 7.015625 4.8203125 C7.80839844 5.62275391 7.80839844 5.62275391 8.6171875 6.44140625 C9.15601563 6.99699219 9.69484375 7.55257813 10.25 8.125 C11.08144531 8.96998047 11.08144531 8.96998047 11.9296875 9.83203125 C13.29104485 11.21686028 14.64614859 12.60783204 16 14 C15.01 14.33 14.02 14.66 13 15 C12.67 14.01 12.34 13.02 12 12 C11.01 12 10.02 12 9 12 C8.67 12.99 8.34 13.98 8 15 C8 12.69 8 10.38 8 8 C6.68 8 5.36 8 4 8 C3.67 7.34 3.34 6.68 3 6 C2.67 12.27 2.34 18.54 2 25 C1.67 25 1.34 25 1 25 C0.67 16.75 0.34 8.5 0 0 Z " fill="#E2A661" transform="translate(27,15)"/>
<path d="M0 0 C3.43834638 1.43703317 5.10532225 3.20051795 7.4375 6.0625 C11.83185 10.57098896 15.44850119 10.9508509 21.58984375 11.05859375 C22.71519531 11.03925781 23.84054688 11.01992187 25 11 C26.73443359 11.01740234 26.73443359 11.01740234 28.50390625 11.03515625 C31.33776008 11.05857653 34.16656443 11.0459476 37 11 C37 11.66 37 12.32 37 13 C32.97972342 13.17528316 28.9604372 13.28118359 24.9375 13.375 C23.80376953 13.42527344 22.67003906 13.47554687 21.50195312 13.52734375 C12.02515249 13.69311869 12.02515249 13.69311869 7.875 10.21875 C6.29077148 8.56787109 6.29077148 8.56787109 5 7 C4.41347656 6.30132812 3.82695313 5.60265625 3.22265625 4.8828125 C2.1484375 3.25520833 1.07421875 1.62760417 0 0 Z " fill="#272122" transform="translate(49,58)"/>
<path d="M0 0 C0.05668492 2.83424593 0.07799953 4.43456843 -1 7 C-3.19167639 8.74221151 -5.48755 10.09197389 -7.8984375 11.51171875 C-10.32554015 12.9687545 -10.32554015 12.9687545 -11.5625 16.375 C-11.706875 17.24125 -11.85125 18.1075 -12 19 C-12.33 19 -12.66 19 -13 19 C-13.71873165 12.17204932 -13.71873165 12.17204932 -11.8046875 9.05078125 C-10.27390043 7.27768366 -8.68053253 5.63098366 -7 4 C-6.278125 3.195625 -5.55625 2.39125 -4.8125 1.5625 C-3 0 -3 0 0 0 Z " fill="#EF4D3E" transform="translate(61,36)"/>
<path d="M0 0 C3.21043882 1.38188453 5.04936365 2.92421903 7.25 5.625 C7.77078125 6.25664063 8.2915625 6.88828125 8.828125 7.5390625 C9.40820312 8.26222656 9.40820312 8.26222656 10 9 C6.04180389 9.08678303 2.08385066 9.14031733 -1.875 9.1875 C-3.56689453 9.22520508 -3.56689453 9.22520508 -5.29296875 9.26367188 C-6.90751953 9.27817383 -6.90751953 9.27817383 -8.5546875 9.29296875 C-10.04718018 9.31653442 -10.04718018 9.31653442 -11.56982422 9.34057617 C-12.37178223 9.22818604 -13.17374023 9.1157959 -14 9 C-14.66 8.01 -15.32 7.02 -16 6 C-9.07 6.33 -2.14 6.66 5 7 C5 6.34 5 5.68 5 5 C4.360625 4.731875 3.72125 4.46375 3.0625 4.1875 C1 3 1 3 0 0 Z " fill="#D3A769" transform="translate(75,60)"/>
<path d="M0 0 C2.97 0 5.94 0 9 0 C7.515 1.485 7.515 1.485 6 3 C6.71542969 3.70511719 7.43085937 4.41023438 8.16796875 5.13671875 C10.97664715 7.94539715 13.64932135 10.86524896 16.3125 13.8125 C17.19550781 14.78832031 18.07851562 15.76414062 18.98828125 16.76953125 C19.65214844 17.50558594 20.31601563 18.24164063 21 19 C20.67 19.66 20.34 20.32 20 21 C17.14852788 18.17317491 14.30029574 15.34313037 11.45507812 12.51000977 C10.48592079 11.54589335 9.51586952 10.58267471 8.54492188 9.62036133 C7.15262088 8.24013641 5.7637538 6.85645022 4.375 5.47265625 C3.53710938 4.64000244 2.69921875 3.80734863 1.8359375 2.94946289 C0 1 0 1 0 0 Z " fill="#402A25" transform="translate(65,48)"/>
<path d="M0 0 C3 1 3 1 4.0625 3 C4.5265625 3.99 4.5265625 3.99 5 5 C5.66 5.33 6.32 5.66 7 6 C7 6.66 7 7.32 7 8 C0.73 8 -5.54 8 -12 8 C-12 7.67 -12 7.34 -12 7 C-10.14375 6.938125 -10.14375 6.938125 -8.25 6.875 C-4.40735288 6.43214173 -4.14481969 6.17740412 -1.5 2.9375 C-1.005 1.968125 -0.51 0.99875 0 0 Z " fill="#FCB456" transform="translate(73,59)"/>
<path d="M0 0 C3.63 0 7.26 0 11 0 C11 0.33 11 0.66 11 1 C9.7934375 1.185625 9.7934375 1.185625 8.5625 1.375 C7.716875 1.58125 6.87125 1.7875 6 2 C5.67 2.66 5.34 3.32 5 4 C5.66 4 6.32 4 7 4 C7 5.65 7 7.3 7 9 C5.82460004 8.07347299 4.65989423 7.13336613 3.5 6.1875 C2.52546875 5.40439453 2.52546875 5.40439453 1.53125 4.60546875 C0 3 0 3 0 0 Z " fill="#F0463B" transform="translate(33,14)"/>
<path d="M0 0 C6.27 0 12.54 0 19 0 C19 0.99 19 1.98 19 3 C19.66 3.33 20.32 3.66 21 4 C19.02 5.32 17.04 6.64 15 8 C14.67 7.34 14.34 6.68 14 6 C14.99 4.35 15.98 2.7 17 1 C11.39 1 5.78 1 0 1 C0 0.67 0 0.34 0 0 Z " fill="#EA7D57" transform="translate(46,29)"/>
<path d="M0 0 C5.94 0 11.88 0 18 0 C17.34 1.32 16.68 2.64 16 4 C15.67 3.34 15.34 2.68 15 2 C10.05 2 5.1 2 0 2 C0 1.34 0 0.68 0 0 Z " fill="#572A24" transform="translate(45,30)"/>
<path d="M0 0 C0.33 0 0.66 0 1 0 C1.22304441 1.74818591 1.4278645 3.49870323 1.625 5.25 C1.74101563 6.22453125 1.85703125 7.1990625 1.9765625 8.203125 C2.00112537 11.13429393 1.5312717 12.54528964 0 15 C-1.32 14.67 -2.64 14.34 -4 14 C-3.525625 13.360625 -3.05125 12.72125 -2.5625 12.0625 C-0.52968613 8.07818481 -0.2789471 4.41505926 0 0 Z " fill="#473134" transform="translate(85,27)"/>
<path d="M0 0 C0.33 0 0.66 0 1 0 C1.55353075 10.55808656 1.55353075 10.55808656 -2 15 C-3.32 14.34 -4.64 13.68 -6 13 C-4.625 11.5 -4.625 11.5 -3 10 C-2.34 10 -1.68 10 -1 10 C-0.67 6.7 -0.34 3.4 0 0 Z " fill="#EB975B" transform="translate(84,26)"/>
<path d="M0 0 C6.75 5.625 6.75 5.625 9 9 C7.68 8.67 6.36 8.34 5 8 C5 7.34 5 6.68 5 6 C4.01 6 3.02 6 2 6 C1.67 6.99 1.34 7.98 1 9 C0.67 6.03 0.34 3.06 0 0 Z " fill="#DAA15C" transform="translate(34,21)"/>
<path d="M0 0 C3.45201639 1.47721422 5.64961936 3.43794001 8.25 6.125 C8.95640625 6.84945312 9.6628125 7.57390625 10.390625 8.3203125 C11.18726563 9.15175781 11.18726563 9.15175781 12 10 C11.01 10.33 10.02 10.66 9 11 C7.87278564 9.73113036 6.74831342 8.45982438 5.625 7.1875 C4.99851562 6.47980469 4.37203125 5.77210937 3.7265625 5.04296875 C2 3 2 3 0 0 Z " fill="#402424" transform="translate(49,58)"/>
<path d="M0 0 C2.31 1.98 4.62 3.96 7 6 C5.68 6.33 4.36 6.66 3 7 C1.6520257 7.63654342 0.31403276 8.29605388 -1 9 C-1 8.34 -1 7.68 -1 7 C-0.34 6.67 0.32 6.34 1 6 C0.67 4.02 0.34 2.04 0 0 Z " fill="#EC965C" transform="translate(68,52)"/>
<path d="M0 0 C1.65 1.65 3.3 3.3 5 5 C3.68 5 2.36 5 1 5 C0.34 6.32 -0.32 7.64 -1 9 C-2 6 -2 6 -1.0625 3.9375 C-0.711875 3.298125 -0.36125 2.65875 0 2 C0 1.34 0 0.68 0 0 Z M-3 9 C-2.34 9.66 -1.68 10.32 -1 11 C-1.66 11 -2.32 11 -3 11 C-3 10.34 -3 9.68 -3 9 Z " fill="#F27C4D" transform="translate(63,47)"/>
<path d="M0 0 C-1.15173355 2.46800047 -2.04783565 4.04783565 -4 6 C-4.99 5.67 -5.98 5.34 -7 5 C-5.22678182 1.07358831 -4.52021524 0 0 0 Z " fill="#F1A65C" transform="translate(81,40)"/>
<path d="M0 0 C2.31 0 4.62 0 7 0 C7.33 1.65 7.66 3.3 8 5 C2.25 3.375 2.25 3.375 0 0 Z " fill="#F15F44" transform="translate(40,23)"/>
<path d="M0 0 C1.65 0.33 3.3 0.66 5 1 C4.67 1.99 4.34 2.98 4 4 C2.35 4 0.7 4 -1 4 C-0.67 2.68 -0.34 1.36 0 0 Z " fill="#FD3E31" transform="translate(30,63)"/>
<path d="M0 0 C0.66 0 1.32 0 2 0 C2 0.66 2 1.32 2 2 C3.32 2.33 4.64 2.66 6 3 C6.33 4.65 6.66 6.3 7 8 C1.125 3.375 1.125 3.375 0 0 Z " fill="#E07556" transform="translate(49,55)"/>
</svg>
